<?xml version="1.0" encoding="utf-8"?>
<!-- Generator: Adobe Illustrator 21.1.0, SVG Export Plug-In . SVG Version: 6.00 Build 0)  -->
<svg version="1.1" id="Layer_1" xmlns="http://www.w3.org/2000/svg" xmlns:xlink="http://www.w3.org/1999/xlink" x="0px" y="0px"
	 viewBox="0 0 184.2 131.8" style="enable-background:new 0 0 184.2 131.8;" xml:space="preserve">
<style type="text/css">
	.st0{fill:#F44364;}
	.st1{fill:#FFFFFF;}
	.st2{fill:#F3997D;}
	.st3{fill:#CB3554;}
	.st4{fill:#F8C299;}
</style>
<title>broken-arm</title>
<path class="st0" d="M180.3,85.7L180.3,85.7c-4.9,4.4-12.4,4.1-16.9-0.8l-54.3-59.5c-4.4-4.9-4.1-12.4,0.8-16.9l0,0
	c4.9-4.4,12.4-4.1,16.9,0.8L181,68.8C185.5,73.7,185.2,81.2,180.3,85.7z"/>
<polygon class="st1" points="99.3,0 145.1,95.6 114.2,103.1 "/>
<path class="st2" d="M29.6,90.1L29.6,90.1c0.1-3.5,3-6.3,6.5-6.3l18.2,0.4c3.5,0.1,6.3,3,6.3,6.5v0c-0.1,3.5-3,6.3-6.5,6.3
	l-18.2-0.4C32.3,96.5,29.5,93.6,29.6,90.1z"/>
<path class="st3" d="M73.1,100L73.1,100c-1.7-6.9,2.5-13.8,9.4-15.5L166.3,64c6.9-1.7,13.8,2.5,15.5,9.4l0,0
	c1.7,6.9-2.5,13.8-9.4,15.5l-83.8,20.6C81.7,111.1,74.8,106.9,73.1,100z"/>
<path class="st4" d="M49.9,105.7L49.9,105.7c-1.1-4.7,1.7-9.4,6.4-10.5l17.5-4.3c4.7-1.1,9.4,1.7,10.5,6.4l0,0
	c1.1,4.7-1.7,9.4-6.4,10.5l-17.5,4.3C55.7,113.2,51,110.4,49.9,105.7z"/>
<path class="st4" d="M14,95.6C4.2,98-1.9,107.9,0.6,117.8v0c2.4,9.9,12.4,15.9,22.2,13.5l22.7-5.6l-8.1-35.8L14,95.6z"/>
<path class="st1" d="M73.3,100L73.3,100c-2.4-9.9-12.4-15.9-22.2-13.5l-13.7,3.4l8.1,35.8l14.3-3.5C69.7,119.8,75.7,109.8,73.3,100z
	"/>
<polygon class="st1" points="34.4,90.6 42.8,126.4 37.4,127.7 28.6,92 "/>
<polygon class="st1" points="26,92.6 34.4,128.4 29.6,129.6 21.2,93.8 "/>
<polygon class="st1" points="113.2,103.1 61.2,0.1 146.2,95.1 "/>
</svg>
